<?xml version="1.0" encoding="UTF-8" standalone="no"?>
<!-- Created with Inkscape (http://www.inkscape.org/) -->

<svg
   width="180.94635mm"
   height="84.267494mm"
   viewBox="0 0 180.94635 84.267494"
   version="1.1"
   id="svg1"
   xml:space="preserve"
   xmlns:inkscape="http://www.inkscape.org/namespaces/inkscape"
   xmlns:sodipodi="http://sodipodi.sourceforge.net/DTD/sodipodi-0.dtd"
   xmlns="http://www.w3.org/2000/svg"
   xmlns:svg="http://www.w3.org/2000/svg"><sodipodi:namedview
     id="namedview1"
     pagecolor="#ffffff"
     bordercolor="#000000"
     borderopacity="0.25"
     inkscape:showpageshadow="2"
     inkscape:pageopacity="0.0"
     inkscape:pagecheckerboard="0"
     inkscape:deskcolor="#d1d1d1"
     inkscape:document-units="mm" /><defs
     id="defs1" /><g
     inkscape:label="Layer 1"
     inkscape:groupmode="layer"
     id="layer1"
     transform="translate(-24.066548,-100.27915)"><g
       id="g2"
       transform="matrix(0.26022988,0,0,0.24060777,-6.6602762,65.202837)"
       style="fill:#ffffff"><path
         d="m 175.629,495.9017 h -4.1452 c -8.6859,0 -17.1087,-1.2171 -25.2682,-3.6519 -8.1596,-2.4348 -14.8714,-6.383 -20.1355,-11.8446 -5.2641,-5.4616 -7.8964,-12.6667 -7.8964,-21.6158 v -2.3691 c 0.6582,-7.37 2.6323,-12.9298 5.9223,-16.6805 3.29,-3.7512 6.5805,-6.1855 9.8705,-7.3043 3.29,-1.1184 4.9352,-1.6779 4.9352,-1.6779 0,0 -0.9544,1.8754 -2.8624,5.626 -1.9084,3.7507 -3.1255,8.5215 -3.6519,14.312 v 1.9741 c 0,5.1327 0.8883,10.2324 2.6649,15.2989 1.7766,5.0666 4.8691,9.5086 9.2779,13.3249 4.4089,3.8169 10.4299,6.5143 18.0626,8.0939 5.1328,0.9209 9.9362,1.3816 14.4107,1.3816 8.5546,0 15.7271,-1.4478 21.5175,-4.3427 5.7905,-2.8955 10.1663,-6.5144 13.1274,-10.8576 2.9611,-4.3427 4.5733,-8.6859 4.8365,-13.0286 l 0.1975,-2.7636 c 0,-8.4227 -3.29,-14.6082 -9.8705,-18.5564 -6.58,-3.9482 -16.9768,-6.4486 -31.1899,-7.5013 -12.371,-1.1846 -22.0439,-2.9281 -29.0189,-5.2315 -6.975,-2.303 -11.8446,-4.9353 -14.6082,-7.8959 -2.7636,-2.9612 -4.1452,-6.021 -4.1452,-9.1797 0,-3.1586 0.9209,-6.218 2.7636,-9.1792 1.8423,-2.9611 3.8495,-5.5277 6.0206,-7.6988 2.1716,-2.1716 3.8494,-3.7181 5.0339,-4.639 -10.1336,-7.8964 -15.2002,-17.7669 -15.2002,-29.6114 0,-10.7914 4.3101,-19.9705 12.9304,-27.5381 8.6197,-7.567 18.9835,-11.3507 31.0912,-11.3507 h 2.5661 c 4.4746,0 9.6404,-1.2172 15.4965,-3.652 5.8566,-2.4348 10.4299,-6.8762 13.7199,-13.3249 -1.1845,0.6577 -2.5004,0.9871 -3.9482,0.9871 -2.2372,0 -4.1783,-0.8226 -5.8235,-2.4679 -1.6452,-1.6447 -2.4674,-3.5862 -2.4674,-5.8235 0,-4.7377 2.7637,-7.5014 8.2909,-8.2909 2.3691,0 4.3427,0.7895 5.9223,2.3691 1.5791,1.5791 2.3686,3.5532 2.3686,5.9218 v 0.5925 c 0,2.3686 -0.4933,4.6059 -1.4803,6.7118 -0.987,2.1055 -2.1385,3.9482 -3.4544,5.5273 -5.2646,6.58 -12.0421,10.7914 -20.333,12.6341 9.87,2.2373 17.8982,6.8106 24.0837,13.7194 6.1849,6.9093 9.2779,14.9045 9.2779,23.9849 0,10.7918 -4.3101,20.0041 -12.9304,27.6373 -8.6197,7.6327 -19.0496,11.4495 -31.2887,11.4495 -10.0018,0 -18.8852,-2.6979 -26.6498,-8.0938 -5.264,4.7377 -7.8963,8.7515 -7.8963,12.042 0,3.0268 1.7109,5.5273 5.1327,7.5014 8.6859,4.4745 18.8852,7.1394 30.598,7.9946 11.7127,0.8557 22.0433,2.7967 30.9924,5.8235 7.37,3.0268 12.5685,7.0081 15.5953,11.9433 3.0268,4.9353 4.5402,10.2324 4.5402,15.891 0,3.8169 -0.592,7.7646 -1.7766,11.8446 -3.0268,9.7386 -8.8173,17.3387 -17.3718,22.8003 -8.5541,5.4616 -17.832,8.3897 -27.8343,8.7847 z m -5.1323,-98.7032 c 7.7646,0 14.4433,-3.5862 20.0367,-10.7587 5.593,-7.1725 8.3897,-15.891 8.3897,-26.1565 0,-10.1332 -2.7967,-18.7865 -8.3897,-25.9585 -5.5934,-7.1725 -12.2721,-10.7587 -20.0367,-10.7587 -7.8964,0 -14.6082,3.5862 -20.1354,10.7587 -5.5273,7.172 -8.2909,15.8253 -8.2909,25.9585 0,10.2655 2.7636,18.984 8.2909,26.1565 5.5272,7.1725 12.239,10.7587 20.1354,10.7587 z m 63.7477,17.9639 h -27.0448 c 0,0 0.5595,-0.3945 1.6779,-1.1846 1.1189,-0.7895 2.2042,-2.1385 3.2574,-4.0464 1.0527,-1.9084 1.579,-4.5076 1.579,-7.7976 v -62.3805 c 0,-3.29 -0.5263,-5.8892 -1.579,-7.7976 -1.0532,-1.9084 -2.1385,-3.29 -3.2574,-4.1457 -1.1184,-0.8552 -1.6779,-1.2828 -1.6779,-1.2828 0,0 2.303,-0.2632 6.9094,-0.7895 4.6059,-0.5269 9.1461,-1.9085 13.6206,-4.1457 v 15.0027 c 1.1846,-1.4478 2.9942,-3.3557 5.429,-5.7248 2.4348,-2.3686 5.5604,-4.5402 9.3767,-6.5143 3.8164,-1.9741 8.2909,-2.9611 13.4236,-2.9611 l 2.7637,0.1975 c 5.7904,0.6577 10.3968,2.1385 13.8186,4.4414 3.4214,2.303 5.6586,4.639 6.7118,7.0081 0.6577,1.3159 0.9871,2.698 0.9871,4.1457 0,2.895 -1.3821,5.2641 -4.1457,7.1063 -1.3159,0.7896 -2.6323,1.1846 -3.9482,1.1846 -2.8955,0 -5.3297,-1.4477 -7.3038,-4.3432 -0.7901,-1.3159 -1.1846,-2.6318 -1.1846,-3.9477 0,-2.8955 1.4477,-5.3303 4.3427,-7.3043 1.1846,-0.6577 2.5005,-1.0528 3.9482,-1.1846 -4.3427,-2.895 -8.8829,-4.4745 -13.6211,-4.7377 l -2.3687,-0.197 c -5.0009,0 -9.4754,1.0853 -13.4236,3.2569 -3.9482,2.1716 -7.2056,4.6063 -9.7717,7.3043 -2.5661,2.6975 -4.244,4.9678 -5.034,6.8101 v 60.9989 c 0,3.29 0.5595,5.8892 1.6783,7.7976 1.1184,1.9079 2.2042,3.2569 3.2569,4.0464 1.0528,0.7901 1.5796,1.1846 1.5796,1.1846 z m 95.347,0 c -2.5004,0 -4.8365,-0.954 -7.0081,-2.8624 -2.1711,-1.9079 -3.4544,-5.626 -3.8494,-11.1533 -3.0268,3.9482 -6.7444,7.2713 -11.1533,9.9687 -4.4088,2.698 -9.9692,4.047 -16.681,4.047 -1.9736,0 -4.0139,-0.1314 -6.1193,-0.3945 -7.8964,-1.1846 -14.2132,-4.047 -18.9509,-8.5872 -4.7377,-4.5407 -7.1068,-9.706 -7.1068,-15.4965 0,-1.3164 0.1318,-2.6323 0.395,-3.9482 2.6318,-8.9491 7.8633,-14.9701 15.6935,-18.0626 7.8307,-3.0929 15.3651,-5.4946 22.6033,-7.2056 3.1582,-0.7895 7.3039,-1.941 12.4366,-3.4544 5.1322,-1.5134 8.0934,-3.5206 8.8829,-6.021 v -2.9611 c 0,-3.0269 -0.3945,-6.4156 -1.184,-10.1663 -0.7901,-3.7507 -2.5993,-7.0737 -5.429,-9.9692 -2.8293,-2.895 -7.0738,-4.6059 -12.7324,-5.1322 -1.9741,0 -4.6064,0.197 -7.8964,0.592 0,0 1.3159,-0.4938 3.9482,-1.4808 2.6318,-0.9866 5.7905,-1.4803 9.4755,-1.4803 h 1.7765 c 7.8964,0.9213 13.7199,3.5531 17.4706,7.8963 3.7507,4.3427 6.1193,9.1792 7.1064,14.5095 0.987,5.3297 1.4808,9.7055 1.4808,13.1273 v 33.5591 c 0,0 0.0326,1.6778 0.0987,5.034 0.0657,3.3557 0.2958,6.2837 0.6908,8.7847 1.3159,4.0795 3.6193,6.1193 6.9093,6.1193 0,0 -0.9544,0.7895 -2.8623,2.3691 -1.9085,1.579 -4.5733,2.3686 -7.9952,2.3686 z m -35.3356,-3.1587 c 5.1327,0 9.7717,-1.4146 13.9169,-4.2439 4.1457,-2.8293 7.6662,-6.4156 10.5612,-10.7588 v -40.6654 c -3.8163,2.6318 -8.916,4.8034 -15.299,6.5143 -6.3824,1.7109 -12.4035,4.2114 -18.0626,7.5014 -5.6591,3.29 -9.1466,8.7515 -10.4625,16.3847 l -0.1975,2.9612 c 0,2.3686 0.4607,5.231 1.3821,8.5871 0.9214,3.3557 2.6649,6.3499 5.231,8.9817 2.5666,2.6323 6.2842,4.2114 11.1538,4.7377 z m 91.187,2.9612 -40.2709,-83.5025 c -2.3692,-4.08 -5.1654,-6.8105 -8.3897,-8.1926 -3.2243,-1.3816 -4.8365,-2.0729 -4.8365,-2.0729 h 35.7307 c -2.7641,0.3951 -4.6064,1.3164 -5.5277,2.7637 -0.9209,1.4477 -1.3816,2.9611 -1.3816,4.5407 0,2.6318 0.3288,4.277 0.987,4.9347 l 30.203,62.578 30.0059,-61.9855 c 0,0 0.1975,-0.5263 0.592,-1.579 0.395,-1.0532 0.5925,-2.2373 0.5925,-3.5537 0,-1.7109 -0.5594,-3.3231 -1.6783,-4.8365 -1.1184,-1.5134 -3.3226,-2.4673 -6.6131,-2.8624 h 24.4787 c 0,0 -1.5465,0.6913 -4.639,2.0729 -3.0929,1.3821 -6.021,4.1126 -8.7846,8.1926 z m 107.3742,0 c -2.6323,0 -5.034,-0.954 -7.2056,-2.8624 -2.1711,-1.9079 -3.4544,-5.626 -3.8494,-11.1533 -2.895,3.9482 -6.5469,7.2713 -10.9558,9.9692 -4.4088,2.6975 -10.0349,4.0465 -16.8785,4.0465 -1.8423,0 -3.882,-0.1314 -6.1193,-0.3945 -7.7645,-1.1846 -14.0162,-4.0139 -18.7539,-8.4884 -4.7377,-4.4746 -7.1063,-9.6073 -7.1063,-15.3978 0,-1.3164 0.1313,-2.6979 0.3945,-4.1457 2.5004,-8.9491 7.6989,-14.9701 15.5952,-18.0626 7.8964,-3.093 15.3978,-5.4946 22.5046,-7.2056 3.1581,-0.7895 7.3369,-1.941 12.5353,-3.4544 5.1979,-1.5134 8.1265,-3.5206 8.7842,-6.021 l 0.1975,-2.9612 c 0,-3.0268 -0.4276,-6.4486 -1.2828,-10.2649 -0.8557,-3.8164 -2.698,-7.1395 -5.5278,-9.9688 -2.8293,-2.8298 -7.0737,-4.5076 -12.7323,-5.0339 h -1.1846 c -2.6323,0 -5.9223,0.4606 -9.8704,1.3815 -3.9482,0.9214 -7.7977,2.6323 -11.5483,5.1328 -3.7507,2.5004 -6.7444,5.9879 -8.9817,10.4625 1.3159,-0.6582 2.6318,-0.9871 3.9477,-0.9871 2.3691,0 4.3432,0.8226 5.9223,2.4679 1.5795,1.6447 2.3691,3.5857 2.3691,5.823 0,2.2373 -0.7896,4.1788 -2.3691,5.8235 -1.5791,1.6453 -3.5532,2.4679 -5.9223,2.4679 -4.4746,0 -7.2382,-2.7636 -8.2909,-8.2914 v -0.592 c 0,-2.3686 0.5594,-4.6059 1.6778,-6.7118 1.1189,-2.1055 2.2704,-3.9482 3.4549,-5.5273 3.8164,-4.8696 8.5541,-8.3897 14.2132,-10.5613 5.6591,-2.1716 11.252,-3.2574 16.7793,-3.2574 10.2655,0.3951 17.7668,2.7311 22.5046,7.0081 4.7377,4.2771 7.7319,9.1792 8.9821,14.707 1.2503,5.5272 1.8754,10.1331 1.8754,13.8181 v 36.1252 c 0,3.1587 0.197,6.9094 0.592,11.2526 1.3159,4.0795 3.6193,6.1193 6.9093,6.1193 0,0 -0.9544,0.79 -2.8624,2.3691 -1.9084,1.579 -4.5076,2.3686 -7.7976,2.3686 z m -35.3357,-3.1582 c 5.1323,0 9.8043,-1.4146 14.0157,-4.2444 4.2114,-2.8293 7.6332,-6.4156 10.265,-10.7588 v -40.6654 c -3.6845,2.6318 -8.7516,4.8034 -15.2002,6.5143 -6.4487,1.7109 -12.4692,4.2114 -18.0626,7.5014 -5.593,3.2899 -9.1135,8.7515 -10.5613,16.3847 v 2.7637 c 0,2.3691 0.4276,5.264 1.2833,8.6859 0.8552,3.4218 2.5992,6.4486 5.231,9.0809 2.6323,2.6318 6.383,4.2114 11.2526,4.7377 z m 131.2456,3.1582 c -12.8972,0 -23.9192,-4.5728 -33.0653,-13.7194 -9.1466,-9.1466 -13.7199,-20.1686 -13.7199,-33.0658 0,-12.8973 4.5733,-23.9518 13.7199,-33.1641 9.1461,-9.2123 20.1681,-13.8187 33.0653,-13.8187 11.3182,0 20.5305,3.7838 27.6368,11.3508 7.1069,7.5676 10.66,16.089 10.66,25.5645 v 0.3945 H 558.129 c -0.395,3.0268 -0.592,6.2511 -0.592,9.673 0,12.1077 2.9937,22.2739 8.9816,30.4992 5.988,8.2252 13.3911,12.7328 22.2083,13.5223 h 2.1716 c 10.5282,0 19.8061,-5.0665 27.8343,-15.2002 l 1.5791,2.5661 c -4.2113,5.0014 -8.2909,8.5877 -12.2391,10.7588 -3.9481,2.1716 -7.5675,3.4875 -10.8575,3.9482 -3.29,0.4607 -6.1193,0.6908 -8.4884,0.6908 z m 27.6368,-58.6293 v -0.395 c 0,-0.9214 -0.1975,-3.0925 -0.592,-6.5143 -0.395,-3.4219 -1.4477,-7.0738 -3.1586,-10.9563 -1.711,-3.882 -4.4746,-7.3038 -8.2909,-10.265 -3.8169,-2.9611 -9.081,-4.4414 -15.7928,-4.4414 -7.8964,0 -14.4432,3.0924 -19.6417,9.2779 -5.1984,6.1855 -8.6533,13.95 -10.3637,23.2941 z m 125.9307,58.8268 h -27.2423 c 0,0 0.5263,-0.3945 1.5791,-1.1846 1.0532,-0.7895 2.1059,-2.1711 3.1586,-4.1452 1.0527,-1.9741 1.6453,-4.6064 1.7766,-7.8963 v -31.3875 c -0.5264,-3.685 0.7895,-7.8964 3.9482,-12.6341 l 10.265,-14.0157 v 58.2348 c 0,3.1581 0.5268,5.7247 1.5795,7.6988 1.0528,1.9741 2.1386,3.3557 3.257,4.1452 1.1188,0.7901 1.6783,1.1846 1.6783,1.1846 z m 70.6713,0 h -27.2423 c 0,0 0.5595,-0.3945 1.6784,-1.1846 1.1183,-0.7895 2.2041,-2.1711 3.2569,-4.1452 1.0527,-1.9741 1.5795,-4.6064 1.5795,-7.8963 v -33.5591 c 0,-8.1596 -0.5268,-15.4634 -1.5795,-21.9121 -1.0528,-6.4486 -3.4219,-11.6139 -7.1064,-15.4964 -3.685,-3.8826 -9.2122,-6.0868 -16.5823,-6.6131 h -2.1716 c -7.3695,0 -14.4106,2.3686 -21.1225,7.1068 -3.5531,2.6318 -7.1063,6.1193 -10.66,10.4625 -3.5531,4.3427 -6.7774,8.7516 -9.6729,13.2261 -2.895,4.4746 -5.2641,8.3897 -7.1064,11.7458 -1.8427,3.3557 -2.9611,5.3629 -3.3561,6.0206 -3.6845,7.1068 -7.567,13.8512 -11.6466,20.2342 -4.08,6.383 -8.9165,11.647 -14.5094,15.7927 -5.5934,4.1452 -12.7329,6.2181 -21.4188,6.2181 -12.8972,0 -23.9192,-4.5733 -33.0653,-13.7194 -9.1466,-9.1466 -13.7199,-20.1686 -13.7199,-33.0658 0,-12.8973 4.5733,-23.9518 13.7199,-33.1641 9.1461,-9.2123 20.1681,-13.8186 33.0653,-13.8186 7.5014,0 14.0157,1.579 19.5435,4.7377 2.5004,1.3159 5.2966,3.2243 8.3896,5.7247 3.0925,2.5005 4.639,5.6591 4.639,9.4755 0,2.2373 -0.8226,4.1788 -2.4674,5.8235 -1.6452,1.6453 -3.5862,2.4679 -5.8235,2.4679 -2.3691,0 -4.3758,-0.8226 -6.021,-2.4679 -1.6453,-1.6447 -2.4674,-3.5862 -2.4674,-5.8235 0,-4.7377 2.8293,-7.5014 8.4884,-8.2909 h 0.7895 c -7.37,-5.7904 -15.0032,-8.6859 -22.8991,-8.6859 h -2.1716 c -9.6072,0.9214 -17.2074,5.4285 -22.8003,13.5224 -5.5934,8.0934 -8.3896,18.1944 -8.3896,30.3017 0,12.239 2.9937,22.3727 8.9816,30.4004 5.988,8.0282 13.3911,12.5028 22.2083,13.4236 l 2.5662,0.1975 c 6.8436,0 12.6671,-1.8091 17.4705,-5.4285 4.8034,-3.6193 9.1136,-8.357 12.9304,-14.2131 3.8163,-5.8566 7.567,-12.1734 11.252,-18.9509 3.685,-6.778 7.6989,-13.5224 12.0416,-20.2342 V 279.939 c 0,-3.29 -0.5264,-5.8892 -1.5791,-7.7976 -1.0527,-1.908 -2.1385,-3.29 -3.2574,-4.1452 -1.1184,-0.8557 -1.6778,-1.2833 -1.6778,-1.2833 0,0 2.3029,-0.2632 6.9093,-0.7896 4.6059,-0.5263 9.2123,-1.9084 13.8182,-4.1457 v 73.238 c 7.8963,-8.6859 18.2932,-13.2261 31.1904,-13.6211 h 1.1846 c 10.3963,0 18.3589,2.1385 23.8861,6.4155 5.5273,4.2775 9.3111,9.9692 11.3508,17.0761 2.0398,7.1063 3.0599,14.937 3.0599,23.4911 v 33.5591 c 0,3.2899 0.559,5.9222 1.6778,7.8963 1.1184,1.9741 2.2042,3.3557 3.2574,4.1452 1.0528,0.7901 1.5791,1.1846 1.5791,1.1846 z M 531.494,414.9649 c -2.1059,0 -4.277,-0.2632 -6.5143,-0.7896 -5.7909,-1.579 -9.9035,-4.8034 -12.3383,-9.6729 -2.4343,-4.8691 -3.6519,-11.0545 -3.6519,-18.5559 v -62.3804 h -14.0157 v -2.1716 c 0,0 1.8423,-0.3951 5.5273,-1.1846 3.685,-0.7895 7.6988,-2.7306 12.0415,-5.8235 4.3432,-3.0925 7.8964,-8.0608 10.66,-14.904 v 21.9121 h 21.1225 v 2.1716 h -21.1225 v 60.4063 c -0.1313,3.8164 0.0988,8.5215 0.6913,14.1144 0.5921,5.5935 2.8624,9.6399 6.8106,12.1404 1.5791,0.79 3.4213,1.1845 5.5273,1.1845 2.3686,0 4.8034,-0.5264 7.3038,-1.5791 2.5005,-1.0527 4.8034,-2.7636 6.9093,-5.1327 -2.1059,3.4218 -4.3758,5.8235 -6.8105,7.2056 -2.4348,1.3815 -4.2445,2.1385 -5.4285,2.2698 -2.106,0.5264 -4.3433,0.7896 -6.7119,0.7896 z"
         style="fill:#ffffff;fill-rule:evenodd;stroke:#000000;stroke-width:0.216;stroke-linecap:butt;stroke-linejoin:miter;stroke-dasharray:none"
         id="path1" /><path
         d="m 443.6332,160.6144 2.928,0.0882 0.0111,36.0278 5.1086,2.2295 c -1.0724,12.3608 -0.3085,12.0486 5.0607,22.1512 l 9.5065,17.9418 c 1.274,-0.8984 1.8731,-3.0326 2.5813,-4.42 l 6.9775,-13.4882 c 5.4676,-10.3206 6.0881,-9.3166 5.1799,-22.0559 l 4.9741,-2.358 0.0925,-35.9063 2.8179,-0.1562 0.1085,-14.8862 -45.2538,0.006 z"
         style="fill:#ffffff;fill-rule:evenodd"
         id="path2" /><path
         d="m 462.996,303.6349 c -4.0609,-4.0202 -31.5041,-41.1802 -33.944,-43.27 l 20.6589,50.8268 -23.6315,-9.3924 c 2.2839,2.3336 12.5376,10.149 15.5789,12.3902 5.0122,3.6937 2.5316,3.468 10.4943,3.4555 l 28.0472,0.001 c 7.7891,0.009 5.9565,0.6671 10.8766,-3.0684 L 506.2129,302.78 c 0.3699,-0.378 0.2901,-0.2824 0.5998,-0.6612 l -23.1796,9.276 20.5662,-50.827 c -1.5841,1.2436 -6.8049,8.3049 -8.5153,10.4789 l -22.9971,29.6966 c -0.3982,0.5113 -0.5041,0.6787 -0.9852,1.2794 -0.2943,0.3675 -0.2062,0.3039 -0.5279,0.6315 -0.831,0.8459 -0.1149,0.2604 -0.9378,0.7865 l -3.9978,-64.1215 c -0.0835,1.503 -0.1482,3.0097 -0.2195,4.5133 -0.137,2.8864 -0.2722,5.7603 -0.425,8.6838 -0.2816,5.391 -0.6206,11.1673 -0.874,16.6805 -0.5273,11.4745 -0.9333,22.9607 -1.7237,34.4381 z"
         style="fill:#ffffff;fill-rule:evenodd"
         id="path3" /><path
         d="m 489.9904,306.3683 c 4.9889,-1.2902 6.4583,-4.6768 10.8587,-9.6863 3.2238,-3.6698 6.2155,-7.2853 9.4109,-11.0574 6.2912,-7.4271 12.6534,-14.6086 18.6736,-22.0181 -6.1784,4.6011 -15.8014,13.3508 -22.0136,18.6671 l -10.9845,9.4965 c -0.6985,0.9606 -5.6037,13.0594 -5.9451,14.5982 z"
         style="fill:#ffffff;fill-rule:evenodd"
         id="path4" /><path
         d="m 471.5681,295.7878 c 1.0941,-0.8014 6.6201,-8.2307 7.905,-9.8701 1.8852,-2.4057 2.1689,-2.4273 2.8481,-6.2311 1.2845,-7.1934 6.7567,-34.479 6.9673,-38.2699 -1.4243,2.2623 -12.3134,34.172 -14.2819,39.6708 -1.801,5.0301 -3.8716,8.6776 -3.4385,14.7003 z"
         style="fill:#ffffff;fill-rule:evenodd"
         id="path5" /><path
         d="m 461.627,295.8022 c 0.5365,-5.9201 -1.5544,-9.5515 -3.3572,-14.5122 l -9.4833,-26.8897 c -1.3332,-3.5824 -3.3012,-10.441 -4.9014,-13.285 0.1256,3.1003 5.7295,31.6223 6.939,38.1733 0.9872,5.3468 2.507,6.1914 6.6761,11.4872 1.3117,1.6662 2.7916,3.8298 4.1268,5.0264 z"
         style="fill:#ffffff;fill-rule:evenodd"
         id="path6" /><path
         d="m 443.238,306.3318 c -0.3241,-1.4597 -5.1483,-13.4215 -5.8264,-14.4288 -0.6847,-1.017 -4.0689,-3.6814 -5.4053,-4.8179 -1.8277,-1.5544 -3.6184,-3.2349 -5.5101,-4.7304 -6.5879,-5.208 -15.992,-14.0958 -22.0907,-18.7332 l 32.6587,38.4903 c 1.9768,2.361 2.5345,3.2442 6.1738,4.22 z"
         style="fill:#ffffff;fill-rule:evenodd"
         id="path7" /><path
         d="m 263.3309,446.0531 c 1.4053,-0.6898 2.4012,-2.0437 2.4012,-3.9857 0,-2.8866 -2.299,-4.6241 -6.4126,-4.6241 h -8.0217 v 17.8838 h 8.5328 c 4.5219,0 6.8471,-1.7627 6.8471,-4.8285 0,-2.3761 -1.3287,-3.8836 -3.3468,-4.4455 z m -4.241,-6.5404 c 2.6057,0 4.0875,0.9707 4.0875,2.8614 0,1.8906 -1.4818,2.8614 -4.0875,2.8614 h -5.2374 v -5.7228 z m 0.6385,13.745 h -5.8759 v -5.9529 h 5.8759 c 2.8362,0 4.3689,0.9199 4.3689,2.9893 0,2.0694 -1.5327,2.9636 -4.3689,2.9636 z m 35.2991,2.0694 -4.241,-6.0037 c 2.5039,-0.8942 3.9344,-2.8871 3.9344,-5.6463 0,-3.8835 -2.8101,-6.2338 -7.4599,-6.2338 h -6.9745 v 17.8838 h 2.5548 v -5.4418 h 4.4197 c 0.3832,0 0.7663,-0.0257 1.1243,-0.0509 l 3.8578,5.4927 z m -7.843,-7.6134 h -4.3432 v -8.0475 h 4.3432 c 3.2702,0 4.9816,1.4561 4.9816,4.0109 0,2.5548 -1.7114,4.0366 -4.9816,4.0366 z m 21.3244,7.6134 h 2.5548 v -17.8838 h -2.5548 z m 30.394,-17.8838 v 13.3362 l -10.7301,-13.3362 h -2.095 v 17.8838 h 2.5547 v -13.3362 l 10.7301,13.3362 h 2.0951 v -17.8838 z m 17.5689,17.8838 h 7.5364 c 5.7485,0 9.6571,-3.6277 9.6571,-8.9417 0,-5.3139 -3.9086,-8.9421 -9.6571,-8.9421 h -7.5364 z m 2.5547,-2.2224 v -13.4385 h 4.8286 c 4.4198,0 7.2555,2.7079 7.2555,6.7192 0,4.0109 -2.8357,6.7193 -7.2555,6.7193 z m 30.7516,0 v -5.7742 h 8.9673 v -2.1716 h -8.9673 v -5.4927 h 10.066 v -2.2229 h -12.6208 v 17.8838 h 12.9782 v -2.2224 z m 29.4227,2.4268 c 4.7264,0 6.9237,-2.3503 6.9237,-5.0799 0,-6.5617 -10.8324,-3.8237 -10.8324,-8.201 0,-1.5628 1.3026,-2.8402 4.3432,-2.8402 1.5841,0 3.3468,0.4602 4.9052,1.4567 l 0.8428,-2.0442 c -1.4818,-1.0216 -3.6534,-1.5841 -5.748,-1.5841 -4.7011,0 -6.8471,2.3509 -6.8471,5.114 0,6.6467 10.8324,3.8919 10.8324,8.2524 0,1.5583 -1.3283,2.7547 -4.4198,2.7547 -2.2995,0 -4.5733,-0.8645 -5.9015,-2.0649 l -0.9456,1.9884 c 1.431,1.3283 4.1136,2.2481 6.8471,2.2481 z m 35.1713,0 c 2.7848,0 5.186,-0.9707 6.8214,-2.8105 l -1.661,-1.6092 c -1.3796,1.4561 -3.0659,2.1459 -5.033,2.1459 -4.0366,0 -7.0254,-2.9122 -7.0254,-6.8723 0,-3.96 2.9888,-6.8727 7.0254,-6.8727 1.9671,0 3.6534,0.6646 5.033,2.1207 l 1.661,-1.6097 c -1.6354,-1.8393 -4.0366,-2.7849 -6.7962,-2.7849 -5.4414,0 -9.478,3.8579 -9.478,9.1466 0,5.2883 4.0366,9.1461 9.4528,9.1461 z m 27.8136,0 c 5.4418,0 9.4784,-3.8835 9.4784,-9.1461 0,-5.2631 -4.0366,-9.1466 -9.4784,-9.1466 -5.4927,0 -9.5293,3.9092 -9.5293,9.1466 0,5.2375 4.0366,9.1461 9.5293,9.1461 z m 0,-2.2738 c -4.0109,0 -6.9745,-2.9122 -6.9745,-6.8723 0,-3.96 2.9636,-6.8727 6.9745,-6.8727 3.96,0 6.9236,2.9127 6.9236,6.8727 0,3.9601 -2.9636,6.8723 -6.9236,6.8723 z m 37.7768,2.0694 -4.241,-6.0037 c 2.5039,-0.8942 3.9344,-2.8871 3.9344,-5.6463 0,-3.8835 -2.8101,-6.2338 -7.4599,-6.2338 h -6.9745 v 17.8838 h 2.5548 v -5.4418 h 4.4197 c 0.3832,0 0.7663,-0.0257 1.1243,-0.0509 l 3.8579,5.4927 z m -7.843,-7.6134 h -4.3432 v -8.0475 h 4.3432 c 3.2702,0 4.9816,1.4561 4.9816,4.0109 0,2.5548 -1.7114,4.0366 -4.9816,4.0366 z m 28.2989,-10.2704 h -6.9745 v 17.8838 h 2.5548 v -5.4161 h 4.4197 c 4.6499,0 7.4599,-2.3504 7.4599,-6.2339 0,-3.8835 -2.81,-6.2338 -7.4599,-6.2338 z m -0.0765,10.2447 h -4.3432 v -8.0218 h 4.3432 c 3.2702,0 4.9816,1.4561 4.9816,4.0109 0,2.5548 -1.7114,4.0109 -4.9816,4.0109 z m 29.2697,7.8435 c 5.4418,0 9.4784,-3.8835 9.4784,-9.1461 0,-5.2631 -4.0366,-9.1466 -9.4784,-9.1466 -5.4927,0 -9.5293,3.9092 -9.5293,9.1466 0,5.2375 4.0366,9.1461 9.5293,9.1461 z m 0,-2.2738 c -4.0109,0 -6.9745,-2.9122 -6.9745,-6.8723 0,-3.96 2.9636,-6.8727 6.9745,-6.8727 3.96,0 6.9237,2.9127 6.9237,6.8727 0,3.9601 -2.9637,6.8723 -6.9237,6.8723 z m 37.7769,2.0694 -4.241,-6.0037 c 2.5039,-0.8942 3.9343,-2.8871 3.9343,-5.6463 0,-3.8835 -2.81,-6.2338 -7.4598,-6.2338 h -6.9745 v 17.8838 h 2.5547 v -5.4418 h 4.4198 c 0.3831,0 0.7663,-0.0257 1.1243,-0.0509 l 3.8578,5.4927 z m -7.8431,-7.6134 h -4.3432 v -8.0475 h 4.3432 c 3.2703,0 4.9817,1.4561 4.9817,4.0109 0,2.5548 -1.7114,4.0366 -4.9817,4.0366 z m 34.6859,7.6134 h 2.6827 l -8.124,-17.8838 h -2.5296 l -8.0988,17.8838 h 2.6317 l 1.9672,-4.4711 h 9.5036 z m -10.5766,-6.5148 3.8574,-8.7629 3.8578,8.7629 z m 28.222,6.5148 h 2.5291 v -15.6609 h 6.1316 v -2.2229 H 645.745 v 2.2229 h 6.1317 z m 21.0943,0 h 2.5548 v -17.8838 h -2.5548 z m 30.3684,-17.8838 -6.4892,14.6901 -6.4382,-14.6901 h -2.7592 l 7.8687,17.8838 h 2.5296 l 7.843,-17.8838 z m 22.3717,18.0882 c 5.4418,0 9.4784,-3.8835 9.4784,-9.1461 0,-5.2631 -4.0366,-9.1466 -9.4784,-9.1466 -5.4927,0 -9.5293,3.9092 -9.5293,9.1466 0,5.2375 4.0366,9.1461 9.5293,9.1461 z m 0,-2.2738 c -4.0109,0 -6.9745,-2.9122 -6.9745,-6.8723 0,-3.96 2.9636,-6.8727 6.9745,-6.8727 3.96,0 6.9237,2.9127 6.9237,6.8727 0,3.9601 -2.9637,6.8723 -6.9237,6.8723 z m 28.2476,2.2738 c 4.7264,0 6.9237,-2.3503 6.9237,-5.0799 0,-6.5617 -10.8324,-3.8237 -10.8324,-8.201 0,-1.5628 1.3026,-2.8402 4.3432,-2.8402 1.584,0 3.3468,0.4602 4.9051,1.4567 l 0.8429,-2.0442 c -1.4818,-1.0216 -3.6534,-1.5841 -5.748,-1.5841 -4.7012,0 -6.8471,2.3509 -6.8471,5.114 0,6.6467 10.8323,3.8919 10.8323,8.2524 0,1.5583 -1.3282,2.7547 -4.4197,2.7547 -2.2995,0 -4.5733,-0.8645 -5.9015,-2.0649 l -0.9456,1.9884 c 1.4309,1.3283 4.1136,2.2481 6.8471,2.2481 z"
         style="fill:#ffffff;fill-rule:evenodd"
         id="path8" /></g></g></svg>
